# xmcd CD database file
#
# Track frame offsets:
#	150
#	61929
#	110591
#	170938
#
# Disc length: 3123 seconds
#
# Revision: 0
# Processed by: cddbd v1.5.2PL0 Copyright (c) Steve Scherf et al.
# Submitted via: CDex 1.70beta2
#
DISCID=350c3104
DTITLE=Bobby Hutcherson - Live at Montreux
DYEAR=1973
DGENRE=Jazz
TTITLE0=Anton's Bail
TTITLE1=The Moontrane
TTITLE2=Farallone
TTITLE3=Song of Songs
EXTD=YEAR: 1973
EXTT0=
EXTT1=
EXTT2=
EXTT3=
PLAYORDER=
